<svg xmlns="http://www.w3.org/2000/svg" xmlns:xlink="http://www.w3.org/1999/xlink" version="1.1" viewBox="0 0 15 264"><title>Rocket</title><desc>Created with Sketch.</desc><defs><linearGradient id="linearGradient-1" x1="50%" x2="50%" y1="100%" y2="0%"><stop offset="0%" stop-color="#CF8A00" stop-opacity="0"/><stop offset="100%" stop-color="#CF8A00" stop-opacity=".15"/></linearGradient><linearGradient id="linearGradient-2" x1="50%" x2="50%" y1="0%" y2="100%"><stop offset="0%" stop-color="#CF8A00" stop-opacity=".2"/><stop offset="100%" stop-color="#CF8A00" stop-opacity="0"/></linearGradient><linearGradient id="linearGradient-3" x1="50%" x2="50%" y1="0%" y2="100%"><stop offset="0%" stop-color="#EEE"/><stop offset="100%" stop-color="#D8D8D8"/></linearGradient></defs><g id="Rocket" fill="none" fill-rule="evenodd" stroke="none" stroke-width="1"><g transform="translate(0.934289, 0.434289)"><g id="Trail" transform="translate(0.000000, 30.000000)"><path id="Oval-3" fill="url(#linearGradient-1)" d="M7,233 C10.8659932,233 14,49.656808 14,24.828404 C14,0 10.8659932,0 7,0 C3.13400675,0 0,0 0,24.828404 C9.13485745e-17,49.656808 3.13400675,233 7,233 Z"/><path id="Oval-3" fill="url(#linearGradient-2)" d="M7,97 C8.38071187,97 9.5,23.0332187 9.5,13.0166093 C9.5,3 8.38071187,3 7,3 C5.61928813,3 4.5,3 4.5,13.0166093 C4.5,23.0332187 5.61928813,97 7,97 Z"/></g><g id="Ship" transform="translate(0.800049, 0.000000)"><path id="Oval-4" fill="url(#linearGradient-3)" d="M6.5,24.1269531 C9.53756612,24.1269531 12,29.410443 12,18.9465515 C12,8.48266004 9.53756612,0 6.5,0 C3.46243388,0 1,8.48266004 1,18.9465515 C1,29.410443 3.46243388,24.1269531 6.5,24.1269531 Z"/><ellipse id="Oval-5" cx="11" cy="20.5" fill="#C2C2C2" rx="2" ry="5.5"/><ellipse id="Oval-5" cx="2" cy="20.5" fill="#C2C2C2" rx="2" ry="5.5"/></g></g></g></svg>